<svg version="1.2" xmlns="http://www.w3.org/2000/svg" viewBox="0 0 24 24" width="24" height="24"><style>.a{fill:#fff}.b{fill:none;stroke:#fff;stroke-width:1.5}</style><path fill-rule="evenodd" class="a" d="m17 12q0 0.2-0.1 0.4-0.1 0.2-0.2 0.3-0.1 0.1-0.3 0.2-0.2 0.1-0.4 0.1h-3v3q0 0.4-0.3 0.7-0.3 0.3-0.7 0.3-0.4 0-0.7-0.3-0.3-0.3-0.3-0.7v-3h-3q-0.4 0-0.7-0.3-0.3-0.3-0.3-0.7 0-0.4 0.3-0.7 0.3-0.3 0.7-0.3h3v-3q0-0.4 0.3-0.7 0.3-0.3 0.7-0.3 0.4 0 0.7 0.3 0.3 0.3 0.3 0.7v3h3q0.2 0 0.4 0.1 0.2 0.1 0.3 0.2 0.1 0.1 0.2 0.3 0.1 0.2 0.1 0.4z"/><path fill-rule="evenodd" class="b" d="m11.9 23c-4.4 0-8.4-2.7-10.1-6.8-1.7-4-0.8-8.7 2.3-11.9 3.2-3.1 7.9-4 12-2.3 4 1.7 6.7 5.6 6.7 10.1 0 1.4-0.3 2.8-0.8 4.1-0.6 1.4-1.4 2.6-2.4 3.6-1 1-2.2 1.8-3.5 2.4-1.4 0.5-2.8 0.8-4.2 0.8z"/></svg>