<svg version="1.2" xmlns="http://www.w3.org/2000/svg" viewBox="0 0 1000 450" width="1000" height="450"><style>.a{fill:#ed008c}.b{fill:#fff}</style><path class="a" d="m225.8 135.7h100v60.8h-100z"/><path class="a" d="m577.8 135.7h204.2v60.8h-204.2z"/><path fill-rule="evenodd" class="a" d="m275.2 65.7l0.1 1.2h-12.4l-0.2-1.2c-1.6-10.4-6.3-16.4-14.7-16.4-9.9 0-16.7 11.6-16.7 30.6 0 21 7.1 31.7 16.6 31.7 8.2 0 12.8-6.6 14.4-17.1l0.2-1.2h12.5l-0.1 1.2c-1.3 17.9-11.5 29.6-27.6 29.6-17.4 0-29.3-16.4-29.3-43.2 0-27.4 13-44.1 30.2-44.1 17 0 25.8 12.3 27 28.9zm286 56.7h-13.7c-1.5-5.8-2.4-10.8-3.1-18.7-0.8-9.1-3.4-14.5-8.4-15-1.7-0.1-3.3-0.1-4.8-0.1h-7.3v33.8h-12.5v-84h22.8c3.7 0 6 0.2 9 0.7 9.1 1.4 16.5 7.8 16.5 22.2 0 10.9-4.9 17.7-12.3 20.5 6.2 3.2 8.6 10 9.3 19.4 0.8 10.3 1.9 16.5 4.5 21.2zm-28.7-46.4c2.2 0 3.7 0 5.1-0.1 4.9-0.6 8.9-3.9 8.9-12 0-8.2-3.3-11-8.2-12-1.5-0.2-3-0.3-5.3-0.3h-9.1v24.4z"/><path fill-rule="evenodd" class="b" d="m331.6 122.4h-45.2v-84h12.6v70h32.6zm22.4-25.3l-6.3 25.3h-13.2l22.5-83.9h15.6l22.2 83.9h-13.6l-6.2-25.3zm3.1-13.3h14.7l-7.2-30.9zm88.1-20.6h-12.8c-0.7-8.6-4.2-13.9-10.7-13.9-5 0-8.8 3.2-8.8 10 0 7 3.4 10.6 13.3 13.7 13.7 4.3 19.9 12.8 19.9 26.3 0 15.8-10.7 24.8-23.1 24.8-14.9 0-24.6-8.9-25.9-26.6h12.8c1.3 9.3 6.7 14 12.9 14 5.8 0 10.3-4.1 10.3-10.6 0-7-3.3-11.1-12.5-14.1-12.8-4.1-20.8-10-20.8-25.5 0-15.4 10.4-24.6 22.3-24.6 14.9 0 21.7 11.5 23.1 26.5zm55 0h-12.8c-0.7-8.6-4.2-13.9-10.7-13.9-5 0-8.8 3.2-8.8 10 0 7 3.4 10.6 13.4 13.7 13.7 4.3 19.8 12.8 19.8 26.3 0 15.8-10.8 24.8-23 24.8-14.9 0-24.7-8.9-25.9-26.6h12.7c1.4 9.3 6.6 14 13 14 5.6 0 10.2-4.1 10.2-10.6 0-7-3.2-11.1-12.5-14.1-12.7-4.1-20.8-10-20.8-25.5 0-15.4 10.4-24.6 22.4-24.6 14.9 0 21.7 11.5 23 26.5zm128.7 17.3c0 26.2-11.6 43.6-30.9 43.6-19.2 0-30.8-17.4-30.8-43.6 0-26.5 11.6-43.8 30.8-43.8 19.3 0 30.9 17.3 30.9 43.8zm-13.1 0c0-19.8-6.6-31.2-17.8-31.2-11.1 0-17.8 11.4-17.8 31.2 0 19.5 6.7 31 17.8 31 11.2 0 17.8-11.5 17.8-31zm82.5 0c0 26.2-11.8 43.6-30.9 43.6-19.4 0-30.9-17.4-30.9-43.6 0-26.5 11.5-43.8 30.9-43.8 19.1 0 30.9 17.3 30.9 43.8zm-13.2 0c0-19.8-6.7-31.2-17.7-31.2-11.2 0-17.9 11.4-17.9 31.2 0 19.5 6.7 31 17.9 31 11 0 17.7-11.5 17.7-31zm91.4 41.9h-12.5v-38.8c0-8.8 0-20 0.2-28.7-1.5 8.7-3.8 19.9-5.8 28.6l-8.8 38.9h-13.6l-8.9-39.1c-1.9-8.5-4.2-19.7-5.6-28.3 0.1 8.8 0.1 19.8 0.1 28.6v38.8h-12.4v-83.9h19.7l14.1 68.4 14.1-68.4h19.4z"/><path class="a" d="m331.1 395h-104.1v-184.1h102v28.8h-73.1v48.5h67.9v29.2h-67.9v48.5h75.2zm150.9-184.1h28.8v184.1h-28.8zm295.3 184.2h-104.1v-184.2h102v28.8h-73.1v48.6h67.9v29.1h-67.9v48.6h75.2z"/><path class="b" d="m459.9 395h-104.1v-184.1h28.8v153.5h75.3zm147.1-155.3v155.3h-28.9v-155.3h-48.9v-28.9h126.7v28.9z"/><path class="a" d="m225.8 409.4h104.3l-78.1 39.1z"/><path class="a" d="m747.2 405h34.8l-17.4 21.8z"/><path class="a" d="m660.4 31.5l91.1-30.5 30.5 30.5z"/><path fill-rule="evenodd" class="a" d="m378.8 167.2c0 16.4-8.7 27.2-23.2 27.2-14.6 0-23.3-10.8-23.3-27.2 0-16.5 8.7-27.3 23.3-27.3 14.5 0 23.2 10.8 23.2 27.3zm-9.9 0c0-12.4-5-19.5-13.3-19.5-8.5 0-13.5 7.1-13.5 19.5 0 12.2 5 19.4 13.5 19.4 8.3 0 13.3-7.2 13.3-19.4zm92.8-18v44.2h-9.4v-44.2h-16v-8.3h41.4v8.3zm107 44.2h-34.1v-52.5h33.4v8.3h-23.9v13.7h22.1v8.4h-22.1v13.8h24.6z"/><path class="b" d="m396.5 162.9h21.5v8.4h-21.5v22.1h-9.4v-52.5h33.4v8.3h-24zm127.7 30.5h-9.4v-21.6h-22v21.6h-9.5v-52.5h9.5v22.6h22v-22.6h9.4z"/></svg>