<svg version="1.2" xmlns="http://www.w3.org/2000/svg" viewBox="0 0 2840 753" width="2840" height="753"><style>.a{fill:#fff}.b{fill:none;stroke:#f50561;stroke-linecap:round;stroke-width:72}.c{fill:none;stroke:#f50561;stroke-linecap:round;stroke-linejoin:round;stroke-width:62}.d{fill:#f50561}.e{fill:none;stroke:#f50561;stroke-width:72}</style><path class="a" d="m247.2 547.1q31.9 0 61.5-12.3 28.1-12.2 50.2-33.9 21.7-22.1 33.5-50.1 12.6-29.6 12.6-61.6 0-31.9-12.6-61.5-11.8-28-33.5-50.1-22.1-21.8-50.2-34-29.6-12.2-61.5-12.2-32.4 0-61.6 12.2-28.4 12.2-50.1 34-21.7 22.1-33.9 50.1-12.3 29.6-12.3 61.5 0 32 12.3 61.6 12.2 28 33.9 50.1 21.7 21.7 50.1 33.9 29.2 12.3 61.6 12.3zm157.8-489.3h94.7v331.4q0 51.3-19.7 98.3-19.3 45.4-54.1 80.5-35.1 34.7-80.5 54.1-46.9 19.7-98.2 19.7-51.3 0-98.3-19.7-45.4-19.4-80.5-54.1-34.7-35.1-54-80.5-19.8-47-19.8-98.3 0-51.3 19.8-98.2 19.3-45.4 54-80.5 35.1-34.8 80.5-54.1 47-19.7 98.3-19.7 44.2 0 85.2 14.6 39.5 14.2 72.6 40.6z"/><path class="b" d="m2537 152c-0.9-9.3 10.5-46.3 40-69 25.3-19.5 55.8-20.8 65-21"/><path class="a" d="m2018.3 425.5q4.3-17.7 4.3-36.3 0-31.9-12.2-61.5-12.2-28-34-50.1-21.7-21.8-50.1-34-29.6-12.2-61.5-12.2-32 0-61.6 12.2-28 12.2-50.1 34-21.7 22.1-33.9 50.1-12.3 29.6-12.3 61.5 0 18.6 4.4 36.3 11.4 49 49.3 82.1 44.6 39.5 104.2 39.5 59.6 0 104.5-39.5 37.5-33.1 49-82.1zm-153.5-288.8q51.3 0 98.2 19.7 45.4 19.3 80.5 54.1 34.8 35.1 54.1 80.5 19.7 46.9 19.7 98.2v236.8q0 67.9-33.9 126.3l-82.1-47.4q21.3-36.3 21.3-78.9v-39.5q-2.4 1.6-4.3 3.2-56.8 43.8-128.3 50.9-12.6 1.2-25.2 1.2-85.7 0-153.5-52.1-43.8-33.5-69.5-82.1-29.6-55.2-29.6-118.4 0-51.3 19.7-98.2 19.4-45.4 54.1-80.5 35.1-34.8 80.5-54.1 47-19.7 98.3-19.7z"/><path class="a" d="m1312.1 389.2v236.8h-94.7v-236.8q0-31.9-12.2-61.5-12.3-28-34-50.1-22.1-21.8-50.1-34-29.6-12.2-61.5-12.2-32 0-61.6 12.2-28.4 12.2-50.1 34-21.7 22.1-34 50.1-12.2 29.6-12.2 61.5v236.8h-94.7v-568.2h94.7v134.1q33.2-26.4 72.6-40.6 41.1-14.6 85.3-14.6 51.3 0 98.2 19.7 45.4 19.3 80.5 54.1 34.7 35.1 54.1 80.5 19.7 46.9 19.7 98.2z"/><path class="a" d="m609 624v-442h94.7v442zm102.6-568.2q0 22.8-16.2 39-16.1 16.2-39 16.2-22.9 0-39.1-16.2-16.2-16.2-16.2-39 0-22.9 16.2-39.1 16.2-16.2 39.1-16.2 22.9 0 39 16.2 16.2 16.2 16.2 39.1z"/><path class="a" d="m1417.5 624v-442h94.7v442zm102.6-568.2q0 22.8-16.2 39-16.1 16.2-39 16.2-22.9 0-39.1-16.2-16.2-16.2-16.2-39 0-22.9 16.2-39.1 16.2-16.2 39.1-16.2 22.9 0 39 16.2 16.2 16.2 16.2 39.1z"/><path class="c" d="m2373.1 333.9c25.2 3 115.1 38.7 102.6 40.7-12.7 2-90.5 31.5-108.8 37.6"/><path class="d" d="m2623.9 435.9c-33.2 0-60-27.9-60-62.5 0-34.5 26.8-62.5 60-62.5 33.1 0 60 28 60 62.5 0 34.6-26.9 62.5-60 62.5z"/><path class="e" d="m2281.2 512.7c-2.4-1.8-21.3-24.2-28.6-41.4-4-9.5-6-25.9-5.5-28"/><path class="e" d="m2804.6 443c0.4 2.1-1.8 18.9-5.8 28.4-7.3 17.2-25.4 39.2-27.8 41"/><path class="e" d="m2778.6 502.9c-19.2 28.4-126.3 96.3-252.6 96.3-126.4 0-233.5-67.9-252.7-96.2"/><path class="e" d="m2247.3 451.2v-167.4c0-59.5 51.5-107.8 115-107.8h326.6c63.5 0 115 48.3 115 107.8v167.3"/></svg>
