<svg version="1.2" xmlns="http://www.w3.org/2000/svg" viewBox="0 0 960 240" width="960" height="240"><style>.a{fill:none;stroke:#fff;stroke-width:40}.b{fill:#fff}.c{fill:none;stroke:#f50561;stroke-width:30}.d{fill:#f50561}.e{fill:none;stroke:#fff;stroke-width:45}</style><path class="a" d="m583 169c-35.9 0-65-29.1-65-65 0-35.9 29.1-65 65-65 35.9 0 65 29.1 65 65 0 35.9-29.1 65-65 65z"/><path class="a" d="m790 220c-44.2 0-80-35.8-80-80 0-44.2 35.8-80 80-80 44.2 0 80 35.8 80 80 0 44.2-35.8 80-80 80z"/><path class="b" d="m72.2 48.4h-71.7v191.6h71.7c61.2 0 100.5-39 100.5-95.8 0-57-39.3-95.8-100.5-95.8zm-25.1 151.2v-111.4h22.1c35.2 0 56 20.8 56 56 0 35.2-20.8 55.4-56 55.4z"/><path class="b" d="m190 240v-160h45v160z"/><path class="b" d="m368 240v-94h45v94z"/><path class="c" d="m664 188.8c-2.7 4.4-23.2 24.8-51 33-15.1 4.4-46.7 5.4-66-2-21-8.1-38.4-25.2-39-26"/><path class="b" d="m253 240v-220h45v220z"/><path class="d" d="m190 20h45v44h-45z"/><path class="b" d="m432 240v-160h45v160z"/><path class="d" d="m432 20h45v44h-45z"/><path class="e" d="m275.6 191.6c-0.4-15.3-2.7-52.9 11.8-70 24.3-28.4 72.8-26.5 92.9-1 15.7 20 9.9 53.2 8.5 49.6m-113.8 20.8"/><path class="b" d=""/><path class="d" d="m927.1 35.4c0.7 5.1-6.2 13.3-16 18.4-26.2 14-68.6 3.4-65.6-2.9 2.1-4.5 21.5-10.8 44.3-14.5 18.3-2.9 36.3-8.8 37.3-1z"/><path class="d" d="m836.7 45.4c-2.4-4.6 1.4-14.6 8.8-22.8 19.8-22 63.3-26.6 62.7-19.6-0.5 5-16.6 17.5-36.8 28.8-16.1 8.9-31 20.6-34.7 13.6z"/></svg>