<svg version="1.2" xmlns="http://www.w3.org/2000/svg" viewBox="0 0 999 240" width="999" height="240"><style>.a{fill:none;stroke:#464646;stroke-width:40}.b{fill:#464646}.c{fill:none;stroke:#595959;stroke-width:30}.d{fill:#595959}.e{fill:none;stroke:#464646;stroke-width:45}.f{fill:#fff}</style><path class="a" d="m583 169c-35.9 0-65-29.1-65-65 0-35.9 29.1-65 65-65 35.9 0 65 29.1 65 65 0 35.9-29.1 65-65 65z"/><path class="a" d="m790 220c-44.2 0-80-35.8-80-80 0-44.2 35.8-80 80-80 44.2 0 80 35.8 80 80 0 44.2-35.8 80-80 80z"/><path fill-rule="evenodd" class="b" d="m172.7 144.2c0 56.8-39.3 95.8-100.5 95.8h-71.7v-191.6h71.7c61.2 0 100.5 38.8 100.5 95.8zm-103.5 55.4c35.2 0 56-20.2 56-55.4 0-35.2-20.8-56-56-56h-22.1v111.4z"/><path class="b" d="m190 240v-160h45v160z"/><path class="b" d="m368 240v-94h45v94z"/><path class="c" d="m664 188.8c-2.7 4.4-23.2 24.8-51 33-15.1 4.4-46.7 5.4-66-2-21-8.1-38.4-25.2-39-26"/><path class="b" d="m253 240v-220h45v220z"/><path class="d" d="m190 20h45v44h-45z"/><path class="b" d="m432 240v-160h45v160z"/><path class="d" d="m432 20h45v44h-45z"/><path class="e" d="m275.6 191.6c-0.4-15.3-2.7-52.9 11.8-70 24.3-28.4 72.8-26.5 92.9-1 15.7 20 9.9 53.2 8.5 49.6"/><path class="f" d=""/><path class="d" d="m927.1 35.4c0.7 5.1-6.2 13.3-16 18.4-26.2 14-68.6 3.4-65.6-2.9 2.1-4.5 21.5-10.8 44.3-14.5 18.3-2.9 36.3-8.8 37.3-1z"/><path class="d" d="m836.7 45.4c-2.4-4.6 1.4-14.6 8.8-22.8 19.8-22 63.3-26.6 62.7-19.6-0.5 5-16.6 17.5-36.8 28.8-16.1 8.9-31 20.6-34.7 13.6z"/><path class="d" d="m980.8 56.5q-0.6-0.8-1.7-1.7-1.1-1-2.3-2-1.2-0.9-2.2-1.4 1.8-1.4 3.9-3.4 2.1-2 4.3-4.3 2.1-2.3 3.9-4.6-3.7 0.1-8.4 0.3-4.7 0.1-9.7 0.3-5 0.2-9.6 0.4-4.7 0.2-8.2 0.3-3.6 0.2-5.3 0.3l-0.3-8.3q2.1 0.1 5.9 0.2 3.8 0 8.5 0 4.8-0.1 9.8-0.2 5-0.1 9.7-0.2 4.7-0.2 8.3-0.5 3.7-0.3 5.6-0.5l5.2 4q-1.4 2.6-3.5 5.6-2.2 3-4.6 6-2.4 2.9-4.8 5.4-2.4 2.6-4.5 4.3zm-25.5 26.4q-0.6-0.9-1.6-2-1-1.2-2.1-2.2-1.2-1.1-2.2-1.7 6.1-3.5 9.8-8.4 3.6-5 5.1-11.3 1.5-6.2 1.3-13.5h8.2q0 13.5-4.5 23.2-4.5 9.6-14 15.9zm-10.6 66v-8.6q1.3 0.1 4.1 0.1 2.8 0.1 6.6 0.2 3.8 0 7.9 0 4.2 0 8 0 3.7 0 7.5 0 3.8 0 7.2 0 3.4-0.1 5.9-0.2 2.6 0 3.5-0.1v8.6q-1.3-0.1-5.1-0.2-3.7-0.1-8.7-0.1-5 0-10.3 0-2.5 0-5.7 0-3.2 0-6.5 0-3.3 0-6.3 0.1-2.9 0-5.1 0.1-2.1 0-3 0.1zm6.9-23v-8.6q1 0.1 3.1 0.1 2.2 0.1 5 0.2 2.9 0 6 0 3.2 0 6.2 0 3.9 0 7.4 0 3.5 0 6-0.1 2.5-0.1 3.3-0.2v8.6q-1.6-0.2-6-0.3-4.4 0-10.7 0-2.5 0-5.7 0-3.1 0-6.1 0-3 0.1-5.4 0.2-2.3 0-3.1 0.1zm-1.3 113.6q-0.9-1.4-2.5-3.4-1.5-2-2.8-3 7-3.4 13.2-8.4 6.3-5 11.3-11-3-2.3-5.8-4.2-2.9-1.8-5.1-2.9l4.7-5.6q2.5 1.1 5.3 2.8 2.7 1.8 5.6 3.7 2.9-4.2 5-8.8 2.2-4.6 3.4-9l7.8 2.6q-3.5 10.6-9.8 19.9 3 2.4 5.6 4.8 2.6 2.3 4.5 4.4-0.9 0.7-2.1 2-1.1 1.2-2.2 2.5-1.1 1.1-1.7 2.1-1.6-2-4-4.4-2.3-2.4-5-4.8-5.2 6.4-11.6 11.7-6.4 5.3-13.8 9z"/></svg>