<svg version="1.2" xmlns="http://www.w3.org/2000/svg" viewBox="0 0 24 24" width="24" height="24"><style>.a{fill:#fff}.b{fill:none;stroke:#fff;stroke-linecap:round;stroke-linejoin:round;stroke-width:1.5}.c{fill:none;stroke:#fff;stroke-width:1.5}</style><path class="a" d="m16 11.2q0 0.1 0 0.2 0 0.1-0.1 0.3 0 0.1-0.1 0.2l-2.9 2.7q-0.1 0.1-0.2 0.2-0.1 0.1-0.2 0.1-0.1 0-0.2 0.1-0.2 0-0.3 0-0.1 0-0.3 0-0.1-0.1-0.2-0.1-0.1 0-0.2-0.1-0.1-0.1-0.2-0.2l-2.9-2.7q-0.1-0.1-0.1-0.2-0.1-0.2-0.1-0.3 0-0.1 0.1-0.2 0-0.2 0.1-0.2 0.1-0.1 0.2-0.2 0.1 0 0.3 0 0.1 0 0.2 0 0.1 0.1 0.2 0.2l2.2 2.1v-6.5q0-0.2 0.2-0.4 0.2-0.2 0.5-0.2 0.3 0 0.5 0.2 0.2 0.2 0.2 0.4v6.5l2.2-2.1q0.1-0.1 0.2-0.2 0.1 0 0.2 0 0.2 0 0.3 0 0.1 0.1 0.2 0.2 0.1 0 0.2 0.2z"/><path class="b" d="m8 17h8"/><path fill-rule="evenodd" class="c" d="m11.9 23c-4.4 0-8.4-2.7-10.1-6.8-1.7-4-0.8-8.7 2.3-11.9 3.2-3.1 7.9-4 12-2.3 4 1.7 6.7 5.6 6.7 10.1 0 1.4-0.3 2.8-0.8 4.1-0.6 1.4-1.4 2.6-2.4 3.6-1 1-2.2 1.8-3.5 2.4-1.4 0.5-2.8 0.8-4.2 0.8z"/></svg>