<?xml version="1.0"?>
<svg xmlns="http://www.w3.org/2000/svg" xmlns:xlink="http://www.w3.org/1999/xlink" xmlns:svgjs="http://svgjs.com/svgjs" version="1.1" width="256" height="256" x="0" y="0" viewBox="0 0 24 24" style="enable-background:new 0 0 512 512" xml:space="preserve"><g><path d="M1,6H23a1,1,0,0,0,0-2H1A1,1,0,0,0,1,6Z" fill="#adadad" data-original="#000000"/><path d="M5,9a1,1,0,0,0,0,2H19a1,1,0,0,0,0-2Z" fill="#adadad" data-original="#000000"/><path d="M19,19H5a1,1,0,0,0,0,2H19a1,1,0,0,0,0-2Z" fill="#adadad" data-original="#000000"/><path d="M23,14H1a1,1,0,0,0,0,2H23a1,1,0,0,0,0-2Z" fill="#adadad" data-original="#000000"/></g></svg>
