<svg version="1.2" xmlns="http://www.w3.org/2000/svg" viewBox="0 0 180 180" width="180" height="180"><style>.a{fill:#f50561}</style><path class="a" d="m113.4 150.9c8.5-4.4 17.7-3.4 20.5 2.2 2.8 5.5-1.8 13.5-10.3 17.8-8.5 4.3-17.6 3.4-20.4-2.2-2.9-5.5 1.7-13.5 10.2-17.8z"/><path class="a" d="m146.8 145c-2.4 0-4.3-1.9-4.3-4.2 0-2.4 1.9-4.3 4.3-4.3 2.4 0 4.3 1.9 4.3 4.3 0 2.3-1.9 4.2-4.3 4.2z"/><path class="a" d="m95.1 176.2c0 0-10.5 0.5-20.3-1.6-9.7-2.1-23-6.3-32.7-14-9.6-7.7-22.6-20-27.2-31.1-4.6-11.2-9-22-9.3-31.2-0.4-9.1 1-26.7 2.3-31.1 1.3-4.3 5.9-17.5 10.9-24.1 5-6.6 11.7-14.8 11.7-14.8 0 0-4.6 0.8-6.3 1.6-1.7 0.7-11.2 4.6-14 6.2-2.8 1.6-6.2 2.3-6.2 2.3 0 0 0.2-2.6 1.6-5.4 1.3-2.8 5.8-10.9 7.7-12.5 2-1.6 3.2-2.9 5.5-3.1 2.3-0.2 13.2-0.8 13.2-0.8 0 0-3.3-3.7-4.7-4.6-1.4-1-7.7-6.3-7.7-6.3 0 0 3-1.1 7-1.5 3.9-0.4 10.7-1.9 13.2-0.8 2.5 1.1 3.9 2.2 5.4 5.4 1.6 3.3 3.2 6.3 3.2 6.3 0 0 5.2-3.1 7-3.9 1.8-0.9 15.1-6.1 21.8-7 6.6-0.9 28-1.8 39.6 2.3 11.7 4.2 28.1 11.8 38.2 22.6 10 10.8 14.1 16.9 16.3 22.5 2.3 5.7 4.7 16.4 4.7 16.4 0 0-5.1-5.6-7-7-2-1.4-10.4-6.8-19.5-10.1-9-3.4-17.3-6.5-26.4-7.8-9.1-1.3-18.7-2.1-26.5-0.8-7.8 1.3-15.2 3.1-21 7-5.8 3.9-9.3 8.2-11.7 13.2-2.4 5.1-3.9 10-3.9 14.8 0.1 4.9 0.8 10.4 4.7 14.8 3.9 4.5 8.6 9.6 17.9 12.5 9.3 2.8 12.9 3.6 21.8 4.6 8.9 1 17.4 0.5 21.8 0 4.4-0.4 13.8-1 20.2 0 6.5 1 12.2 2.8 13.3 3.9 1 1.1 1 3.1 0 4.7-1.1 1.6-10.9 7.4-15.6 8.6-4.7 1.2-16.3 3.9-21 4.6-4.8 0.8-15 2.7-17.9 3.9-3 1.3-9.9 4.9-11.7 6.2-1.8 1.4-7.7 7.4-8.6 9.4-0.8 2-1.8 7.8 0 11.7 1.8 3.9 5.6 7.6 7 9.3 1.5 1.7 4.4 3 3.9 3.9-0.4 0.8-0.7 0.8-0.7 0.8z"/><path class="a" d="m91.2 81.2c-1.4-1.8-3.4-6.9-3.9-10.1-0.6-3.2-0.4-6.6 1.5-9.3 2-2.7 5.6-1.2 8.6 0 3 1.1 8.1 5.8 13.2 10.1 5.2 4.3 11.3 11 14.8 15.5 3.5 4.6-0.5 6.9-5.4 8.6-4.9 1.8-12.6-1.5-14.8-2.3-2.2-0.8-8-5.9-10.3-8.4-2.3-2.3-2.3-2.3-3.7-4.1z"/><path class="a" d="m167.4 90.6c1-1.8 2.8-4.3 3.9-5.5 1.2-1.1 3.1-3.6 3.9-3.1 0.8 0.5 0.7 0.3 0.8 3.1 0.1 2.9-0.9 10.4-2.3 12.5-1.4 2.1-3.4 4.4-4.7 4.6-1.3 0.3-3.5-1.2-3.9-3.9-0.4-2.6 1.3-6 2.3-7.7z"/></svg>