<svg version="1.2" xmlns="http://www.w3.org/2000/svg" viewBox="0 0 24 24" width="24" height="24"><style>.a{fill:none;stroke:#fff;stroke-linecap:round;stroke-linejoin:round;stroke-width:1.5}</style><path class="a" d="m1 6.2c0-2.9 2.3-5.2 5.2-5.2h11.6c2.9 0 5.2 2.3 5.2 5.2v11.6c0 2.9-2.3 5.2-5.2 5.2h-11.6c-2.9 0-5.2-2.3-5.2-5.2z"/><path class="a" d="m10.4 12c0 1.2-0.9 2.2-2.2 2.2-1.2 0-2.2-1-2.2-2.2 0-1.2 1-2.2 2.2-2.2 1.3 0 2.2 1 2.2 2.2z"/><path class="a" d="m10.4 12h7.6v2.2"/><path class="a" d="m14.6 14.2v-2.2"/></svg>