<svg version="1.2" xmlns="http://www.w3.org/2000/svg" viewBox="0 0 24 24" width="24" height="24"><style>.a{fill:none;stroke:#fff;stroke-linecap:round;stroke-linejoin:round;stroke-width:1.5}</style><path class="a" d="m2 5.6c0-2.5 2.1-4.6 4.6-4.6h10.8c2.5 0 4.6 2.1 4.6 4.6v12.9c0 2.5-2.1 4.6-4.6 4.6h-10.8c-2.5 0-4.6-2.1-4.6-4.6z"/><path class="a" d="m9 10.3v-1.3c0-1.6 1.3-2.9 2.9-2.9 1.6 0 2.9 1.3 2.9 2.9v1.3"/><path class="a" d="m7.1 14c0-2 1.7-3.7 3.7-3.7h2.2c2 0 3.7 1.7 3.7 3.7 0 2.1-1.7 3.8-3.7 3.8h-2.2c-2 0-3.7-1.7-3.7-3.8z"/><path class="a" d="m11.9 13.3v1.4"/></svg>