<svg version="1.2" xmlns="http://www.w3.org/2000/svg" viewBox="0 0 254 260" width="254" height="260">
	<title>RODIKI</title>
	<style>
		.s0 { fill: #ffffff } 
	</style>
	<path id="Forma 3" class="s0" d="m156.6 209c10.9-5.6 22.7-4.3 26.3 2.8 3.6 7.1-2.3 17.4-13.2 22.9-10.9 5.6-22.7 4.4-26.3-2.8-3.7-7.1 2.2-17.3 13.2-22.9z"/>
	<path id="Forma 4" class="s0" d="m199.5 201.5c-3 0-5.5-2.4-5.5-5.5 0-3 2.5-5.5 5.5-5.5 3 0 5.5 2.5 5.5 5.5 0 3.1-2.5 5.5-5.5 5.5z"/>
	<path id="Forma 1" class="s0" d="m133 241.5c0 0-13.5 0.7-26-2-12.5-2.7-29.6-8.1-42-18-12.4-9.9-29.1-25.7-35-40-5.9-14.3-11.6-28.2-12-40-0.4-11.8 1.3-34.4 3-40 1.7-5.6 7.6-22.5 14-31 6.4-8.5 15-19 15-19 0 0-5.8 1-8 2-2.2 1-14.4 6-18 8-3.6 2.1-8 3-8 3 0 0 0.3-3.4 2-7 1.7-3.6 7.5-13.9 10-16 2.5-2.1 4-3.7 7-4 3-0.2 17-1 17-1 0 0-4.2-4.8-6-6-1.8-1.2-10-8-10-8 0 0 3.9-1.5 9-2 5.1-0.5 13.8-2.4 17-1 3.2 1.4 5 2.8 7 7 2 4.2 4 8 4 8 0 0 6.7-3.9 9-5 2.3-1.1 19.4-7.8 28-9 8.6-1.1 36-2.3 51 3 15 5.4 36.1 15.2 49 29 12.9 13.9 18.1 21.7 21 29 2.9 7.3 6 21 6 21 0 0-6.5-7.2-9-9-2.5-1.8-13.4-8.7-25-13-11.6-4.3-22.3-8.3-34-10-11.7-1.6-24-2.7-34-1-10 1.7-19.5 4-27 9-7.5 5-11.9 10.5-15 17-3.1 6.5-5.1 12.8-5 19 0.1 6.2 1 13.3 6 19 5 5.7 11.1 12.3 23 16 11.9 3.7 16.6 4.7 28 6 11.4 1.3 22.3 0.6 28 0 5.7-0.6 17.7-1.3 26 0 8.3 1.3 15.7 3.6 17 5 1.3 1.4 1.4 3.9 0 6-1.4 2.1-14 9.5-20 11-6 1.6-20.9 5-27 6-6.1 1-19.2 3.4-23 5-3.8 1.6-12.7 6.3-15 8-2.3 1.7-9.9 9.4-11 12-1.1 2.6-2.3 10 0 15 2.3 5.1 7.1 9.8 9 12 1.9 2.2 5.6 3.9 5 5-0.6 1.1-1 1-1 1z"/>
	<path id="Forma 2" class="s0" d="m128 119.5c-1.8-2.3-4.3-8.9-5-13-0.7-4.1-0.5-8.5 2-12 2.5-3.4 7.1-1.5 11 0 3.9 1.5 10.4 7.5 17 13 6.6 5.5 14.5 14.1 19 20 4.5 5.9-0.7 8.8-7 11-6.3 2.3-16.2-1.9-19-3-2.8-1-10.2-7.5-13.2-10.7-2.9-3-3-3-4.8-5.3z"/>
	<path id="Capa 2" class="s0" d="m226 131.5c1.3-2.2 3.5-5.5 5-7 1.5-1.4 4-4.6 5-4 1 0.6 0.9 0.4 1 4 0.1 3.7-1.2 13.4-3 16-1.8 2.7-4.3 5.7-6 6-1.7 0.3-4.5-1.6-5-5-0.5-3.4 1.7-7.8 3-10z"/>
</svg>