<svg version="1.2" xmlns="http://www.w3.org/2000/svg" viewBox="0 0 24 24" width="24" height="24"><style>.a{fill:#fff}</style><path fill-rule="evenodd" class="a" d="m10 15q0.6 0 1.1 0.2 0.6 0.3 1 0.7 0.4 0.4 0.7 1 0.2 0.5 0.2 1.1v3c0 0.8-0.3 1.6-0.9 2.1-0.5 0.6-1.3 0.9-2.1 0.9-0.8 0-1.6-0.3-2.1-0.9-0.6-0.5-0.9-1.3-0.9-2.1v-3q0-0.6 0.2-1.1 0.3-0.6 0.7-1 0.4-0.4 1-0.7 0.5-0.2 1.1-0.2zm-1 6q0 0.4 0.3 0.7 0.3 0.3 0.7 0.3 0.4 0 0.7-0.3 0.3-0.3 0.3-0.7v-3q0-0.4-0.3-0.7-0.3-0.3-0.7-0.3-0.4 0-0.7 0.3-0.3 0.3-0.3 0.7z"/><path class="a" d="m1 2q0.2 0 0.4 0.1 0.2 0.1 0.3 0.2 0.1 0.1 0.2 0.3 0.1 0.2 0.1 0.4v2.4c2.1-3.2 5.6-5.2 9.4-5.4 3.9-0.2 7.5 1.5 9.9 4.5 2.4 2.9 3.3 6.9 2.3 10.6-1 3.7-3.7 6.7-7.2 8.1q-0.1 0-0.1 0-0.1 0-0.1 0-0.1 0-0.1 0-0.1 0-0.1 0.1-0.4-0.1-0.6-0.3-0.3-0.2-0.4-0.6-0.1-0.3 0.1-0.6 0.2-0.3 0.5-0.5c3.1-1.2 5.3-3.7 6.1-6.9 0.8-3.1 0-6.5-2.1-8.9-2.1-2.5-5.3-3.8-8.5-3.5-3.2 0.3-6.1 2.2-7.7 5h2.6q0.4 0 0.7 0.3 0.3 0.3 0.3 0.7 0 0.4-0.3 0.7-0.3 0.3-0.7 0.3h-3q-0.6 0-1.2-0.2-0.5-0.3-0.9-0.7-0.4-0.4-0.7-1-0.2-0.5-0.2-1.1v-3q0-0.2 0.1-0.4 0-0.2 0.2-0.3 0.1-0.1 0.3-0.2 0.2-0.1 0.4-0.1z"/><path class="a" d="m4.6 15.2q0.1 0.1 0.2 0.2 0.1 0.2 0.1 0.3 0.1 0.2 0.1 0.3v7q0 0.4-0.3 0.7-0.3 0.3-0.7 0.3-0.4 0-0.7-0.3-0.3-0.3-0.3-0.7v-4.6l-1.3 1.3q-0.3 0.3-0.7 0.3-0.4 0-0.7-0.3-0.3-0.3-0.3-0.7 0-0.4 0.3-0.7l3-3q0.1-0.1 0.2-0.2 0.1-0.1 0.3-0.1 0.1 0 0.3 0 0.1 0 0.3 0.1 0.1 0 0.2 0.1z"/></svg>