<svg version="1.2" xmlns="http://www.w3.org/2000/svg" viewBox="0 0 512 512" width="512" height="512"><style>.a{fill:none;stroke:#fff;stroke-width:28}.b{fill:#fff}</style><path class="a" d="m17 141c0-41.4 33.6-75 75-75h328c41.4 0 75 33.6 75 75v229.3c0 41.4-33.6 75-75 75h-328c-41.4 0-75-33.6-75-75z"/><path class="b" d="m75.6 255.3c0 55.1 36.1 90.6 86.7 90.5 43.7 0 73.2-24.7 82.7-62h-47.8c-5.4 15.8-16.8 24.1-35.2 24.1-24.7 0-41.2-18.4-41.2-52.6 0-34.2 16.5-52.9 41.2-52.9 18.4 0 30.1 9.5 35.2 24.4h47.8c-9.5-39.3-39-62.1-82.7-62.1-50.6 0-86.7 35.5-86.7 90.6zm190.6 0c0 55.1 36.1 90.5 86.8 90.5 43.7 0 73.1-24.7 82.6-62h-47.8c-5.4 15.8-16.8 24-35.2 24.1-24.7 0-41.1-18.4-41.1-52.6 0-34.2 16.4-52.9 41.1-52.9 18.4 0 30.1 9.5 35.2 24.4h47.8c-9.5-39.3-38.9-62.1-82.6-62.1-50.7 0-86.8 35.5-86.8 90.6z"/></svg>