<svg version="1.2" xmlns="http://www.w3.org/2000/svg" viewBox="0 0 24 24" width="24" height="24"><style>.a{fill:#fff}</style><path fill-rule="evenodd" class="a" d="m22.1 15.2q0.6 0.3 1 0.7 0.4 0.4 0.7 1 0.2 0.5 0.2 1.1v3c0 0.8-0.3 1.6-0.9 2.1-0.5 0.6-1.3 0.9-2.1 0.9-0.8 0-1.6-0.3-2.1-0.9-0.6-0.5-0.9-1.3-0.9-2.1v-3q0-0.6 0.2-1.1 0.3-0.6 0.7-1 0.4-0.4 1-0.7 0.5-0.2 1.1-0.2 0.6 0 1.1 0.2zm-0.1 2.8q0-0.4-0.3-0.7-0.3-0.3-0.7-0.3-0.4 0-0.7 0.3-0.3 0.3-0.3 0.7v3q0 0.4 0.3 0.7 0.3 0.3 0.7 0.3 0.4 0 0.7-0.3 0.3-0.3 0.3-0.7z"/><path class="a" d="m23.4 2.1q0.2 0.1 0.3 0.2 0.1 0.1 0.2 0.3 0.1 0.2 0.1 0.4v3q0 0.6-0.2 1.1-0.3 0.6-0.7 1-0.4 0.4-1 0.7-0.5 0.2-1.1 0.2h-3q-0.4 0-0.7-0.3-0.3-0.3-0.3-0.7 0-0.4 0.3-0.7 0.3-0.3 0.7-0.3h2.6c-1.6-2.8-4.5-4.7-7.7-5-3.2-0.3-6.4 1-8.5 3.5-2.1 2.4-2.9 5.8-2.1 8.9 0.8 3.2 3 5.7 6.1 6.9q0.3 0.2 0.5 0.5 0.1 0.3 0.1 0.6-0.1 0.4-0.4 0.6-0.2 0.2-0.6 0.2 0 0-0.1 0 0 0-0.1 0 0 0-0.1 0 0 0-0.1 0c-3.5-1.4-6.2-4.4-7.2-8.1-1-3.7-0.1-7.7 2.3-10.6 2.4-3 6-4.7 9.9-4.5 3.8 0.2 7.3 2.2 9.4 5.4v-2.4q0-0.2 0.1-0.4 0.1-0.2 0.2-0.3 0.1-0.1 0.3-0.2 0.2-0.1 0.4-0.1 0.2 0 0.4 0.1z"/><path class="a" d="m15.6 15.2q0.1 0.1 0.2 0.2 0.1 0.2 0.2 0.3 0 0.2 0 0.3v7q0 0.4-0.3 0.7-0.3 0.3-0.7 0.3-0.4 0-0.7-0.3-0.3-0.3-0.3-0.7v-4.6l-1.3 1.3q-0.3 0.3-0.7 0.3-0.4 0-0.7-0.3-0.3-0.3-0.3-0.7 0-0.4 0.3-0.7l3-3q0.1-0.1 0.2-0.2 0.2-0.1 0.3-0.1 0.2 0 0.3 0 0.1 0 0.3 0.1 0.1 0 0.2 0.1z"/></svg>