<svg version="1.2" xmlns="http://www.w3.org/2000/svg" viewBox="0 0 20 20" width="20" height="20"><style>.a{fill:#fff}</style><path fill-rule="evenodd" class="a" d="m0 4.2c0-1.8 1.4-3.2 3.2-3.2h12.4c1.8 0 3.2 1.4 3.2 3.2v5h-1.2v-5c0-1.1-0.9-2-2-2h-12.4c-1.1 0-2 0.9-2 2v7.7c0 1.1 0.9 2 2 2h5v1.2h-5c-1.8 0-3.2-1.4-3.2-3.2zm9.4 7.7c0-0.9 0.7-1.5 1.5-1.5h7.6c0.8 0 1.5 0.6 1.5 1.5v5.2c0 0.8-0.7 1.5-1.5 1.5h-7.6c-0.8 0-1.5-0.7-1.5-1.5zm-6.3-7.8c0.2-0.2 0.6-0.2 0.8 0l3.2 3.1v-2.1c0-0.3 0.2-0.6 0.5-0.6 0.4 0 0.6 0.3 0.6 0.6v3.5q0 0.6-0.6 0.6h-3.5c-0.3 0-0.6-0.2-0.6-0.6 0-0.3 0.3-0.6 0.6-0.6h2.1l-3.1-3.1c-0.2-0.2-0.2-0.6 0-0.8z"/></svg>